<?xml version="1.0" encoding="utf-8"?>
<!-- Generator: Adobe Illustrator 21.1.0, SVG Export Plug-In . SVG Version: 6.00 Build 0)  -->
<svg version="1.1" id="Layer_1" xmlns="http://www.w3.org/2000/svg" xmlns:xlink="http://www.w3.org/1999/xlink" x="0px" y="0px"
	 viewBox="0 0 396 396" style="enable-background:new 0 0 396 396;" xml:space="preserve">
<style type="text/css">
	.st0{fill:#A8A8A8;}
</style>
<path class="st0" d="M311.8,118.8c0-31.4-12.7-59.9-33.3-80.5C257.9,17.7,229.4,5,198,5s-59.9,12.7-80.5,33.4
	c-20.6,20.6-33.3,49-33.3,80.5s12.7,59.9,33.3,80.5c20.6,20.6,49.1,33.4,80.5,33.4s59.9-12.7,80.5-33.4
	C299.1,178.7,311.8,150.3,311.8,118.8z"/>
<path class="st0" d="M61.4,346.5c0,22.8,51.2,45.5,136.6,45.5c80.1,0,136.6-22.8,136.6-45.5c0-45.5-53.6-91.1-136.6-91.1
	C112.6,255.4,61.4,300.9,61.4,346.5z"/>
</svg>
